# xmcd
#
# Track frame offsets: 
#        150
#        18417
#        34740
#        55612
#        76957
#        95500
#        108317
#        124692
#        138692
#
# Disc length: 2190 seconds
#
# Revision: 2
# Processed by: cddbd v1.5.2PL0 Copyright (c) Steve Scherf et al.
# Submitted via: ExactAudioCopy v0.99pb5
#
DISCID=6e088c09
DTITLE=Paul Butterfield - The Legendary Paul Butterfield Rides Again
DYEAR=1900
DGENRE=Blues
TTITLE0=We Stand A Chance
TTITLE1=SAve Me
TTITLE2=Heart Like A Locamotive
TTITLE3=Don't You Hang Me Up
TTITLE4=The Wandering Kind
TTITLE5=Bad Love
TTITLE6=Mannish Boy
TTITLE7=The Night Ain't Long Enough
TTITLE8=Changes
EXTD=
EXTT0=
EXTT1=
EXTT2=
EXTT3=
EXTT4=
EXTT5=
EXTT6=
EXTT7=
EXTT8=
PLAYORDER=
